<svg width="100" height="51" viewBox="0 0 100 51" fill="none" xmlns="http://www.w3.org/2000/svg">
<g clip-path="url(#clip0_2_473)">
<path d="M52.07 33.94C47.07 33.94 44.28 30.94 44.28 27.27C44.28 25.76 44.35 14.56 44.35 14.56C42.71 14.56 41.9 13.7 41.9 12.63C41.9048 12.3428 41.9679 12.0596 42.0855 11.7975C42.2031 11.5354 42.3727 11.3 42.5841 11.1055C42.7954 10.9109 43.0441 10.7614 43.315 10.6659C43.5859 10.5704 43.8734 10.531 44.16 10.55C44.16 10.55 44.16 6.81001 44.16 5.26001C44.1521 4.84121 44.2272 4.42499 44.3811 4.0354C44.535 3.64581 44.7645 3.29057 45.0565 2.99023C45.3485 2.68989 45.6971 2.45039 46.0821 2.28557C46.4672 2.12076 46.8812 2.0339 47.3 2.03001C48.1496 2.03793 48.9614 2.38237 49.5575 2.98783C50.1536 3.59329 50.4854 4.41038 50.48 5.26001C50.48 6.59001 50.36 8.43001 50.37 10.47H53.64C55.36 10.47 56.07 11.41 56.07 12.62C56.0707 12.8949 56.0147 13.1669 55.9056 13.4191C55.7964 13.6714 55.6364 13.8984 55.4356 14.0861C55.2348 14.2738 54.9975 14.4181 54.7384 14.5099C54.4794 14.6018 54.2042 14.6392 53.93 14.62C52.81 14.62 50.33 14.62 50.33 14.62C50.22 18.19 50.11 22.5 50.11 25.94C50.1082 26.3136 50.1849 26.6835 50.335 27.0256C50.4852 27.3677 50.7055 27.6745 50.9816 27.9262C51.2578 28.1779 51.5837 28.3688 51.9383 28.4865C52.2928 28.6043 52.6682 28.6464 53.04 28.61C57.8 28.61 59.17 23.81 59.17 14.76C59.17 14.1871 59.3976 13.6377 59.8027 13.2327C60.2078 12.8276 60.7572 12.6 61.33 12.6C61.9029 12.6 62.4523 12.8276 62.8574 13.2327C63.2625 13.6377 63.49 14.1871 63.49 14.76C63.5 26.62 60.5 33.94 52.07 33.94Z" fill="#EE6123"/>
<path d="M72.37 14.99C73.3368 14.2978 74.4422 13.8235 75.61 13.6C76.82 13.6 76.61 13.82 76.61 15.02C76.61 27.94 74.27 34.02 65.91 34.02C62.27 34.02 58.91 31.31 58.91 28.02C58.91 26.73 59.13 24.15 59.13 22.86C59.13 10.37 58.94 7.73 58.94 4.06C58.9446 3.19274 59.2844 2.36086 59.8883 1.73836C60.4921 1.11586 61.3133 0.750963 62.18 0.720001C62.5927 0.721161 63.0009 0.804953 63.3806 0.966433C63.7603 1.12791 64.1038 1.36381 64.3909 1.66021C64.678 1.9566 64.9028 2.30749 65.0521 2.69218C65.2013 3.07686 65.2721 3.48755 65.26 3.9C65.26 7.56 64.86 12.9 64.75 26.68C64.75 27.83 65.3 28.68 66.8 28.68C71.47 28.56 72.19 22.65 72.37 14.99Z" fill="#EE6123"/>
<path d="M87.53 31.75C87.53 31.75 85.77 34.05 81.32 33.94C75.41 33.8 72.68 29.11 72.39 24.28C72.17 20.63 72.27 18.05 72.27 15.68C72.2428 15.2745 72.2983 14.8678 72.4331 14.4844C72.5679 14.1011 72.7792 13.7491 73.0541 13.4499C73.329 13.1506 73.6619 12.9103 74.0325 12.7436C74.4031 12.5769 74.8037 12.4872 75.21 12.48C76.99 12.48 78.03 13.95 78.03 15.71C78.03 18.08 77.88 20.16 77.86 22.71C77.86 25.82 78.86 28.57 81.49 28.56C84.12 28.55 86.71 27.51 86.78 22.17C86.78 19.58 86.72 18.04 86.72 15.67C86.72 14.8743 87.0361 14.1113 87.5987 13.5487C88.1613 12.9861 88.9243 12.67 89.72 12.67C90.5156 12.67 91.2787 12.9861 91.8413 13.5487C92.4039 14.1113 92.72 14.8743 92.72 15.67C92.72 18.04 92.53 20.39 92.53 24.05C92.53 24.05 92.42 31.44 92.68 33.05C94.0603 32.4371 95.1969 31.3814 95.91 30.05C96.2184 29.5453 96.7037 29.1736 97.2712 29.0072C97.8388 28.8409 98.4479 28.8917 98.98 29.15C99.4733 29.4793 99.8225 29.9844 99.9563 30.5623C100.09 31.1402 99.9984 31.7474 99.7 32.26C98.52 34.87 96.99 36.47 93.13 37.8C93.13 42.23 92.83 48.8 84.64 49.95C77.64 50.95 74.44 46.89 74.43 43.43C74.43 37.96 79.88 36.37 87.77 34.43L87.53 31.75ZM88.3 38.83C84.3 39.69 79.3 40.94 79.37 43.4C79.43 45.7 81.8 46.12 83.79 45.71C87.9 44.86 88.38 42.43 88.3 38.83Z" fill="#EE6123"/>
<path d="M31.43 27.95C31.43 26.44 31.26 14.32 31.26 14.32C31.2118 13.9106 31.2509 13.4956 31.3746 13.1023C31.4984 12.7091 31.704 12.3465 31.9779 12.0384C32.2519 11.7304 32.588 11.4838 32.9641 11.315C33.3402 11.1461 33.7477 11.0588 34.16 11.0588C34.5722 11.0588 34.9798 11.1461 35.3559 11.315C35.732 11.4838 36.0681 11.7304 36.342 12.0384C36.616 12.3465 36.8216 12.7091 36.9453 13.1023C37.0691 13.4956 37.1082 13.9106 37.06 14.32C36.85 19.99 36.76 23.73 36.76 25.71C36.76 26.85 37.39 28.61 39.24 28.61C43.51 28.61 44.4 24.61 44.4 15.07C44.4532 14.4724 44.732 13.9176 45.1796 13.5182C45.6273 13.1188 46.2103 12.9049 46.81 12.92C47.0935 12.9173 47.3748 12.9711 47.6374 13.0781C47.9 13.185 48.1387 13.3431 48.3397 13.5432C48.5407 13.7432 48.6999 13.9812 48.8081 14.2433C48.9163 14.5054 48.9713 14.7864 48.97 15.07C48.97 29.55 46.45 33.94 38.27 33.94C34.9 33.96 31.43 31.86 31.43 27.95Z" fill="#EE6123"/>
<path d="M33.36 12.16C32.19 12.16 32.11 12.41 31.36 13.63C31.36 18.97 30.81 24.81 23.94 27.98C28.55 19.6 24.06 10.85 16.99 10.85C14.5089 10.7709 12.0841 11.5993 10.17 13.18C10.17 10.59 10.26 5.99 10.26 5.99C10.26 2.8 9.13999 0.250002 5.25998 0.190002C4.17707 0.129083 3.10372 0.421945 2.20181 1.02442C1.29991 1.62689 0.618368 2.5063 0.259985 3.53C0.0498248 3.9046 -0.0143565 4.3437 0.0797978 4.76277C0.173952 5.18185 0.419786 5.5513 0.769983 5.8C1.13902 5.95354 1.54867 5.97988 1.93434 5.87486C2.32 5.76984 2.65974 5.53945 2.89998 5.22C3.22998 4.8 3.41999 4.71 3.70999 4.74C4.18999 4.8 4.20999 5.57 4.22999 6.06C4.24999 6.55 4.61998 10.95 4.40998 25.06C4.40998 28.95 7.47998 33.96 14.82 33.96C28.25 33.96 36.31 27.6 36.31 13.74C36.26 12.61 34.54 12.16 33.36 12.16ZM14.77 28.53C12.03 28.53 10.28 27.53 10.16 25.11C10.1188 24.3672 10.1188 23.6228 10.16 22.88C10.43 19.4 12.62 17.14 15.04 16.66C18.04 16.06 20.04 17.43 20.04 21.34C20.05 23.99 19.31 28.43 14.77 28.53Z" fill="#EE6123"/>
<path d="M34.1701 8.49C35.9595 8.49 37.4101 7.04836 37.4101 5.27C37.4101 3.49165 35.9595 2.05 34.1701 2.05C32.3806 2.05 30.9301 3.49165 30.9301 5.27C30.9301 7.04836 32.3806 8.49 34.1701 8.49Z" fill="#EE6123"/>
</g>
<defs>
<clipPath id="clip0_2_473">
<rect width="100" height="50" fill="white" transform="translate(0 0.190002)"/>
</clipPath>
</defs>
</svg>
